<?xml version="1.0" encoding="iso-8859-1"?>
<!-- Generator: Adobe Illustrator 19.0.0, SVG Export Plug-In . SVG Version: 6.00 Build 0)  -->
<svg version="1.1" id="Capa_1" xmlns="http://www.w3.org/2000/svg" xmlns:xlink="http://www.w3.org/1999/xlink" x="0px" y="0px"
	 viewBox="0 0 512 512" style="enable-background:new 0 0 512 512;" xml:space="preserve">
<path style="fill:#9AD7FC;" d="M496.699,511.635H15.301C6.851,511.635,0,504.784,0,496.334V15.666C0,7.216,6.851,0.365,15.301,0.365
	h481.398c8.45,0,15.301,6.851,15.301,15.301v480.667C512,504.784,505.149,511.635,496.699,511.635z"/>
<path style="fill:#18A7FC;" d="M496.699,0.365H256v511.27h240.698c8.45,0,15.301-6.851,15.301-15.301V15.666
	C512,7.216,505.149,0.365,496.699,0.365z"/>
<g>
	<path style="fill:#0A4EAF;" d="M225.011,153.623H105.675c-8.45,0-15.301-6.851-15.301-15.301c0-8.45,6.851-15.301,15.301-15.301
		h119.336c8.45,0,15.301,6.851,15.301,15.301C240.313,146.772,233.462,153.623,225.011,153.623z"/>
	<path style="fill:#0A4EAF;" d="M225.011,275.166H105.675c-8.45,0-15.301-6.851-15.301-15.301s6.851-15.301,15.301-15.301h119.336
		c8.45,0,15.301,6.851,15.301,15.301S233.462,275.166,225.011,275.166z"/>
	<path style="fill:#0A4EAF;" d="M225.011,396.706H105.675c-8.45,0-15.301-6.851-15.301-15.301s6.851-15.301,15.301-15.301h119.336
		c8.45,0,15.301,6.851,15.301,15.301S233.462,396.706,225.011,396.706z"/>
</g>
<g>
	<path style="fill:#063E8B;" d="M345.82,183.601c-3.851,0-7.699-1.445-10.665-4.328l-30.315-29.461
		c-6.06-5.889-6.199-15.577-0.309-21.637c5.889-6.06,15.577-6.198,21.637-0.309l19.858,19.298l60.053-56.116
		c6.176-5.77,15.858-5.441,21.627,0.733c5.77,6.175,5.441,15.857-0.733,21.627l-70.707,66.072
		C353.322,182.229,349.569,183.601,345.82,183.601z"/>
	<path style="fill:#063E8B;" d="M345.82,305.143c-3.851,0-7.699-1.445-10.665-4.328l-30.315-29.461
		c-6.06-5.889-6.199-15.577-0.309-21.637c5.889-6.061,15.577-6.199,21.637-0.309l19.858,19.298l60.053-56.116
		c6.175-5.769,15.857-5.442,21.627,0.733c5.77,6.175,5.441,15.857-0.733,21.627l-70.707,66.072
		C353.322,303.772,349.569,305.143,345.82,305.143z"/>
	<path style="fill:#063E8B;" d="M345.82,426.685c-3.851,0-7.699-1.445-10.665-4.328l-30.315-29.461
		c-6.06-5.889-6.199-15.577-0.309-21.637c5.889-6.06,15.577-6.199,21.637-0.309l19.858,19.298l60.053-56.116
		c6.175-5.769,15.857-5.442,21.627,0.733c5.77,6.175,5.441,15.857-0.733,21.627l-70.707,66.072
		C353.322,425.313,349.569,426.685,345.82,426.685z"/>
</g>
<g>
</g>
<g>
</g>
<g>
</g>
<g>
</g>
<g>
</g>
<g>
</g>
<g>
</g>
<g>
</g>
<g>
</g>
<g>
</g>
<g>
</g>
<g>
</g>
<g>
</g>
<g>
</g>
<g>
</g>
</svg>
